<?xml version="1.0" encoding="utf-8"?>
<!-- Generator: Adobe Illustrator 25.4.1, SVG Export Plug-In . SVG Version: 6.00 Build 0)  -->
<svg version="1.1" id="Layer_1" xmlns="http://www.w3.org/2000/svg" xmlns:xlink="http://www.w3.org/1999/xlink" x="0px" y="0px"
	 viewBox="0 0 98 96" style="enable-background:new 0 0 98 96;" xml:space="preserve">
<style type="text/css">
	.st0{fill:#FFFFFF;}
</style>
<g id="XMLID_00000173119518901362182430000012467026849577360006_">
	<g>
		<path class="st0" d="M48.8,0c26.9,0,48.9,22,48.8,49.2c0,21.8-14,40.2-33.4,46.7c-2.4,0.5-3.3-1.1-3.3-2.4c0-1.6,0.1-6.9,0.1-13.5
			c0-4.6-1.5-7.6-3.3-9.1C68.6,69.7,80,65.5,80,46.6c0-5.4-1.9-9.8-5-13.2c0.5-1.2,2.2-6.3-0.5-13c0,0-4.1-1.3-13.4,5
			c-3.9-1.1-8.1-1.6-12.2-1.6c-4.1,0-8.2,0.6-12.2,1.6c-9.3-6.4-13.4-5-13.4-5c-2.7,6.8-1,11.8-0.5,13c-3.1,3.4-5,7.8-5,13.2
			c0,18.9,11.4,23.1,22.2,24.3c-1.4,1.2-2.7,3.4-3.1,6.6c-2.8,1.3-9.9,3.4-14.2-4.1c0,0-2.6-4.7-7.5-5c0,0-4.8,0-0.3,3
			c0,0,3.2,1.5,5.4,7.2c0,0,2.8,8.8,16.4,5.9c0,4.1,0.1,8,0.1,9.1c0,1.3-0.9,2.9-3.3,2.4C14,89.4,0,71,0,49.2C0,22,21.8,0,48.8,0z"
			/>
	</g>
	<g>
	</g>
</g>
</svg>
