<?xml version="1.0" encoding="utf-8"?>
<!-- Generator: Adobe Illustrator 25.4.1, SVG Export Plug-In . SVG Version: 6.00 Build 0)  -->
<svg version="1.1" id="Group_1282" xmlns="http://www.w3.org/2000/svg" xmlns:xlink="http://www.w3.org/1999/xlink" x="0px" y="0px"
	 viewBox="0 0 76.6 65.3" style="enable-background:new 0 0 76.6 65.3;" xml:space="preserve">
<style type="text/css">
	.st0{fill:#0A66C2;}
	.st1{fill:#FFFFFF;}
</style>
<g id="XMLID_00000041988123878498205960000003110203924149342127_">
	<g>
		<path class="st0" d="M64.8,4.7v55.4c0,2.6-2.2,4.7-4.8,4.7H4.8c-2.6,0-4.8-2.1-4.8-4.7V4.7C0,2.1,2.2,0,4.8,0H60
			C62.6,0,64.8,2.1,64.8,4.7z M55.2,55.2l0-17c0-8.3-1.8-14.7-11.5-14.7c-3.7-0.1-7.2,1.8-9.1,5h-0.1v-4.2h-9.2v30.9h9.6V39.9
			c0-4,0.8-7.9,5.8-7.9c4.9,0,5,4.6,5,8.2v15H55.2z M19.2,55.2V24.3H9.6v30.9H19.2z M20,14.5c0-3.1-2.5-5.6-5.6-5.6
			c-3.1,0-5.6,2.5-5.6,5.6s2.5,5.6,5.6,5.6C17.5,20.1,20,17.6,20,14.5z"/>
		<path class="st1" d="M55.2,38.2l0,17h-9.6v-15c0-3.6-0.1-8.2-5-8.2c-5,0-5.8,3.9-5.8,7.9v15.3h-9.6V24.3h9.2v4.2h0.1
			c1.9-3.2,5.4-5.1,9.1-5C53.4,23.5,55.2,29.9,55.2,38.2z"/>
		<rect x="9.6" y="24.3" class="st1" width="9.6" height="30.9"/>
		<circle class="st1" cx="14.4" cy="14.5" r="5.6"/>
	</g>
	<g>
	</g>
</g>
</svg>
