<svg id="Layer_1" data-name="Layer 1" xmlns="http://www.w3.org/2000/svg" viewBox="0 0 360.18 97.41"><defs><style>.cls-1{fill:#fff;}</style></defs><path class="cls-1" d="M389.11,493.11H358.85a1.43,1.43,0,0,0-1.42,1.42v14.8a1.42,1.42,0,0,0,1.42,1.41h11.8v18.39s-2.65.9-10,.9C352,530,340,526.87,340,500.31s12.58-30.07,24.38-30.07c10.23,0,14.63,1.8,17.43,2.67a1.43,1.43,0,0,0,1.7-1.39l3.37-14.3a1.31,1.31,0,0,0-.54-1.1c-1.13-.81-8.08-4.7-25.62-4.7-20.2,0-40.93,8.6-40.93,49.92s23.73,47.49,43.73,47.49c16.56,0,26.6-7.08,26.6-7.08a1.22,1.22,0,0,0,.46-1.07V494.53A1.42,1.42,0,0,0,389.11,493.11Z" transform="translate(-319.74 -451.42)"/><path class="cls-1" d="M545.1,456.37a1.42,1.42,0,0,0-1.41-1.42h-17a1.42,1.42,0,0,0-1.41,1.42v32.94H498.68V456.37a1.42,1.42,0,0,0-1.41-1.42h-17a1.42,1.42,0,0,0-1.41,1.42v89.18a1.43,1.43,0,0,0,1.41,1.43h17a1.42,1.42,0,0,0,1.41-1.43V507.41h26.56l0,38.14a1.42,1.42,0,0,0,1.41,1.43h17.08a1.42,1.42,0,0,0,1.41-1.43Z" transform="translate(-319.74 -451.42)"/><path class="cls-1" d="M421.27,468.08a11,11,0,1,0-11,11.1A11,11,0,0,0,421.27,468.08Z" transform="translate(-319.74 -451.42)"/><path class="cls-1" d="M420.06,526.74V485.57a1.42,1.42,0,0,0-1.41-1.42h-17a1.63,1.63,0,0,0-1.48,1.59v59c0,1.73,1.08,2.24,2.48,2.24H418c1.68,0,2.1-.82,2.1-2.27Z" transform="translate(-319.74 -451.42)"/><path class="cls-1" d="M609.87,484.29H593a1.41,1.41,0,0,0-1.4,1.42v43.73a19.14,19.14,0,0,1-10.4,3.14c-6.09,0-7.71-2.76-7.71-8.73V485.71a1.42,1.42,0,0,0-1.41-1.42H554.87a1.42,1.42,0,0,0-1.41,1.42v41c0,17.74,9.88,22.08,23.48,22.08,11.15,0,20.15-6.17,20.15-6.17s.43,3.25.62,3.64a1.49,1.49,0,0,0,1.24.77l10.92,0a1.42,1.42,0,0,0,1.41-1.42V485.71A1.42,1.42,0,0,0,609.87,484.29Z" transform="translate(-319.74 -451.42)"/><path class="cls-1" d="M656.09,482.29A31.82,31.82,0,0,0,640,486.57v-30.2a1.42,1.42,0,0,0-1.41-1.42H621.45a1.42,1.42,0,0,0-1.41,1.42v89.18a1.43,1.43,0,0,0,1.41,1.43h11.86a1.42,1.42,0,0,0,1.24-.76,28.4,28.4,0,0,0,.72-4.11s7,6.62,20.22,6.62c15.53,0,24.43-7.88,24.43-35.36S665.7,482.29,656.09,482.29Zm-6.67,50.24a20.31,20.31,0,0,1-9.85-2.84V501.45a22.54,22.54,0,0,1,8.74-2.84c6.09-.54,12,1.3,12,15.82C660.27,529.75,657.62,532.78,649.42,532.53Z" transform="translate(-319.74 -451.42)"/><path class="cls-1" d="M469,484.15H456.25l0-16.89c0-.64-.33-1-1.07-1H437.74c-.67,0-1,.3-1,.95V484.7s-8.73,2.11-9.32,2.28a1.41,1.41,0,0,0-1,1.36v11a1.42,1.42,0,0,0,1.41,1.43h8.93v26.38c0,19.6,13.75,21.52,23,21.52A38.91,38.91,0,0,0,469.87,547a1.3,1.3,0,0,0,.8-1.27V533.62a1.43,1.43,0,0,0-1.41-1.42c-.74,0-2.65.3-4.61.3-6.28,0-8.41-2.92-8.41-6.7V500.73H469a1.43,1.43,0,0,0,1.42-1.43V485.57A1.42,1.42,0,0,0,469,484.15Z" transform="translate(-319.74 -451.42)"/></svg>