<svg id="Layer_1" data-name="Layer 1" xmlns="http://www.w3.org/2000/svg" viewBox="0 0 128.95 145.36"><defs><style>.cls-1{fill:#68a063;}</style></defs><path class="cls-1" d="M499.86,573.05a11.26,11.26,0,0,1-5.59-1.5L476.49,561c-2.66-1.48-1.36-2-.48-2.31a35.8,35.8,0,0,0,8-3.67,1.36,1.36,0,0,1,1.32.1l13.66,8.1a1.78,1.78,0,0,0,1.65,0L554,532.5a1.69,1.69,0,0,0,.81-1.44V469.59a1.73,1.73,0,0,0-.82-1.47L500.69,437.4a1.65,1.65,0,0,0-1.64,0l-53.23,30.72a1.71,1.71,0,0,0-.85,1.46V531a1.64,1.64,0,0,0,.83,1.43l14.59,8.43c7.92,4,12.76-.71,12.76-5.4V474.83a1.51,1.51,0,0,1,1.54-1.53h6.75a1.52,1.52,0,0,1,1.53,1.53v60.69c0,10.56-5.76,16.63-15.77,16.63-3.08,0-5.51,0-12.28-3.33l-14-8.06a11.25,11.25,0,0,1-5.59-9.72V469.58a11.18,11.18,0,0,1,5.59-9.71l53.32-30.76a11.66,11.66,0,0,1,11.2,0l53.25,30.77a11.25,11.25,0,0,1,5.59,9.71v61.47a11.27,11.27,0,0,1-5.59,9.7l-53.25,30.76a11.18,11.18,0,0,1-5.62,1.5" transform="translate(-435.36 -427.68)"/><path class="cls-1" d="M518.65,495.75c-16.54-2.18-18.22-3.32-18.22-7.2,0-3.2,1.43-7.46,13.68-7.46,10.95,0,15,2.36,16.64,9.73a1.54,1.54,0,0,0,1.5,1.2c.81-.15,7.63.43,8-.49,1-13.11-9.14-20-26.16-19.83-31.88-.78-33,33.78-.65,33.47,17.44,1.7,18.8,4.25,18.8,7.68,0,5.95-4.78,8.49-16,8.49-14.1,0-17.19-3.54-18.23-10.55-.19-2.39-7-1-8.4-1.3a1.53,1.53,0,0,0-1.54,1.53c0,9,4.89,19.67,28.19,19.67l-.08.06C549.27,532,553.81,496.61,518.65,495.75Z" transform="translate(-435.36 -427.68)"/></svg>